<svg xmlns="http://www.w3.org/2000/svg" width="354.769" height="704.484" viewBox="0 0 354.769 704.484">
  <g id="Group_182" data-name="Group 182" transform="translate(744.561 -536.695) rotate(90)">
    <path id="Path_1" data-name="Path 1" d="M1180.534,744.561l60.644-354.769H597.339L536.695,435.95Z" transform="translate(0 0)" fill="#af1e09" fill-rule="evenodd"/>
    <rect id="Rectangle_1" data-name="Rectangle 1" width="643.84" height="308.611" transform="translate(536.695 435.95)" fill="#e71c07"/>
    <path id="Path_118" data-name="Path 118" d="M0,0H611.833V276.268H0Z" transform="translate(552.53 452.121)" fill="#e71c07"/>
    <path id="Path_2" data-name="Path 2" d="M744.054,435.95V744.561L803.688,698.4V389.792Z" transform="translate(436.48 0)" fill="#af1e09" fill-rule="evenodd"/>
    <path id="Path_3" data-name="Path 3" d="M616.523,436.994a53.906,53.906,0,1,1-53.57,53.9,54.064,54.064,0,0,1,53.57-53.9Z" transform="translate(55.274 99.357)" fill="#af1e09" fill-rule="evenodd"/>
    <path id="Path_4" data-name="Path 4" d="M676.864,436.994a53.9,53.9,0,1,1-53.9,53.9,54.064,54.064,0,0,1,53.9-53.9Z" transform="translate(181.581 99.357)" fill="#af1e09" fill-rule="evenodd"/>
    <path id="Path_5" data-name="Path 5" d="M736.978,436.994a53.9,53.9,0,1,1-53.9,53.9,54.062,54.062,0,0,1,53.9-53.9Z" transform="translate(308.117 99.357)" fill="#af1e09" fill-rule="evenodd"/>
    <path id="Path_6" data-name="Path 6" d="M592.769,436.994a53.906,53.906,0,0,1,43.125,86.249,65.723,65.723,0,0,1-8.088.674,53.907,53.907,0,0,1-42.786-86.249,55.062,55.062,0,0,1,7.75-.674Z" transform="translate(79.029 99.357)" fill="#563412" fill-rule="evenodd"/>
    <path id="Path_7" data-name="Path 7" d="M653.11,436.994a53.9,53.9,0,0,1,43.124,86.249,65.722,65.722,0,0,1-8.085.674,54.064,54.064,0,0,1-53.9-53.908,52.209,52.209,0,0,1,11.119-32.341,55.017,55.017,0,0,1,7.747-.674Z" transform="translate(205.335 99.357)" fill="#563412" fill-rule="evenodd"/>
    <path id="Path_8" data-name="Path 8" d="M713.224,436.994a54.062,54.062,0,0,1,53.9,53.9,52.241,52.241,0,0,1-11.116,32.344,55.578,55.578,0,0,1-7.75.674,53.906,53.906,0,0,1-43.124-86.249,65.118,65.118,0,0,1,8.085-.674Z" transform="translate(331.872 99.357)" fill="#563412" fill-rule="evenodd"/>
  </g>
</svg>
