<svg xmlns="http://www.w3.org/2000/svg" xmlns:xlink="http://www.w3.org/1999/xlink" width="32" height="32" viewBox="0 0 32 32">
  <defs>
    <clipPath id="clip-path">
      <rect width="32" height="32" fill="none"/>
    </clipPath>
  </defs>
  <g id="Instagram" clip-path="url(#clip-path)">
    <path id="Path_4" data-name="Path 4" d="M23.685,16.7a8.285,8.285,0,1,0,8.285,8.285A8.3,8.3,0,0,0,23.685,16.7Zm0,13.593a5.308,5.308,0,1,1,5.308-5.308A5.332,5.332,0,0,1,23.685,30.293Z" transform="translate(-7.685 -9.05)" fill="#4d6a7b"/>
    <circle id="Ellipse_3" data-name="Ellipse 3" cx="1.864" cy="1.864" r="1.864" transform="translate(22.72 5.615)" fill="#4d6a7b"/>
    <path id="Path_5" data-name="Path 5" d="M32.819,7.445A9.188,9.188,0,0,0,26.045,4.8H12.755C7.142,4.8,3.4,8.542,3.4,14.155V27.381a9.283,9.283,0,0,0,2.71,6.9,9.415,9.415,0,0,0,6.71,2.516H25.981a9.526,9.526,0,0,0,6.774-2.516A9.236,9.236,0,0,0,35.4,27.445V14.155A9.249,9.249,0,0,0,32.819,7.445Zm-.258,20a6.3,6.3,0,0,1-1.871,4.71,6.669,6.669,0,0,1-4.71,1.677H12.819a6.669,6.669,0,0,1-4.71-1.677,6.485,6.485,0,0,1-1.742-4.774V14.155A6.432,6.432,0,0,1,8.11,9.445a6.561,6.561,0,0,1,4.71-1.677H26.11a6.432,6.432,0,0,1,4.71,1.742,6.657,6.657,0,0,1,1.742,4.645v13.29Z" transform="translate(-3.4 -4.8)" fill="#4d6a7b"/>
  </g>
</svg>
